<svg xmlns="http://www.w3.org/2000/svg" width="32" height="32" viewBox="0 0 32 32">
  <g id="camera" transform="translate(-977 -532)">
    <circle id="Ellipse_64" data-name="Ellipse 64" cx="16" cy="16" r="16" transform="translate(977 532)" fill="#f9fbfd"/>
    <g id="_1" data-name="1" transform="translate(930.869 433)">
      <path id="Path_55377" data-name="Path 55377" d="M147.587,196.845a4.457,4.457,0,1,1,4.457-4.457A4.457,4.457,0,0,1,147.587,196.845Zm0-7.718a3.264,3.264,0,1,0,3.264,3.264A3.264,3.264,0,0,0,147.587,189.127Z" transform="translate(-85.458 -76.749)" fill="#a5c4e0"/>
      <path id="Path_55378" data-name="Path 55378" d="M122.6,369.187l-.059,0-.058-.009a.518.518,0,0,1-.057-.014.574.574,0,0,1-.055-.02q-.027-.011-.053-.025a.581.581,0,0,1-.051-.03c-.016-.011-.032-.022-.047-.035a.584.584,0,0,1-.044-.04c-.014-.014-.027-.029-.04-.044a.552.552,0,0,1-.035-.047.582.582,0,0,1-.03-.051q-.014-.026-.025-.053c-.008-.018-.014-.037-.02-.055a.559.559,0,0,1-.014-.057c0-.019-.007-.04-.009-.058a.572.572,0,0,1,0-.058.587.587,0,0,1,0-.059c0-.019.005-.04.009-.058a.543.543,0,0,1,.014-.057c.006-.017.012-.037.02-.055s.016-.035.025-.053a.579.579,0,0,1,.03-.051c.011-.016.022-.032.035-.047a.59.59,0,0,1,.04-.044c.014-.014.029-.027.044-.04a.549.549,0,0,1,.047-.035.662.662,0,0,1,.1-.055c.018-.008.037-.014.055-.02s.04-.01.057-.014a.538.538,0,0,1,.058-.009.639.639,0,0,1,.117,0l.058.009a.512.512,0,0,1,.057.014c.017.006.037.012.055.02l.053.025a.621.621,0,0,1,.1.064.521.521,0,0,1,.043.04c.014.014.027.029.04.044a.548.548,0,0,1,.035.047.581.581,0,0,1,.03.051q.014.026.025.053c.008.018.014.037.02.055a.543.543,0,0,1,.014.057c0,.019.007.04.009.058a.584.584,0,0,1,0,.059.572.572,0,0,1,0,.059c0,.02-.005.04-.009.058a.489.489,0,0,1-.014.057c-.006.017-.012.037-.02.055s-.016.035-.025.053-.019.034-.03.051-.023.032-.035.047a.515.515,0,0,1-.04.044c-.014.014-.028.027-.043.04a.662.662,0,0,1-.1.065c-.017.009-.035.018-.053.025a.546.546,0,0,1-.055.02l-.057.014c-.019,0-.04.007-.058.009A.575.575,0,0,1,122.6,369.187Z" transform="translate(-65.168 -249.645)" fill="#a5c4e0"/>
      <path id="Path_55379" data-name="Path 55379" d="M69.532,122.082H54.727a.6.6,0,0,1-.6-.6V110.833a.6.6,0,0,1,.6-.6h3.208l.955-1.906a.6.6,0,0,1,.533-.33h5.413a.6.6,0,0,1,.534.33l.955,1.906h3.208a.6.6,0,0,1,.6.6v10.652a.6.6,0,0,1-.6.6Zm-14.208-1.194H68.935V111.43H65.956a.6.6,0,0,1-.534-.33l-.955-1.906H59.792l-.955,1.906a.6.6,0,0,1-.533.33h-2.98Z" fill="#a5c4e0"/>
    </g>
  </g>
</svg>
