<svg xmlns="http://www.w3.org/2000/svg" xmlns:xlink="http://www.w3.org/1999/xlink" width="114" height="98" viewBox="0 0 114 98">
  <defs>
    <clipPath id="clip-path">
      <rect id="Rectangle_35" data-name="Rectangle 35" width="114" height="98" transform="translate(1242.364 733.592)" fill="#fff"/>
    </clipPath>
  </defs>
  <g id="brand" transform="translate(-1242.364 -733.592)" clip-path="url(#clip-path)">
    <rect id="Rectangle_33" data-name="Rectangle 33" width="114" height="98" rx="25" transform="translate(1242.364 733.592)" fill="#f5f5f5"/>
    <g id="brand-2" data-name="brand" transform="translate(1264.528 747.756)">
      <g id="Group_32" data-name="Group 32">
        <g id="Group_31" data-name="Group 31">
          <path id="Path_96" data-name="Path 96" d="M38.833,42.857,0,81.69l20.559,20.559L59.392,63.416,55.966,46.284Z" transform="translate(0 -32.578)" fill="#dc0000"/>
          <path id="Path_97" data-name="Path 97" d="M45.87,202.86a3.565,3.565,0,0,0-6.083-2.387l-3.663,3.663,8.468,8.468,3.663-3.663a3.562,3.562,0,0,0-2.385-6.081Zm.77,4.466-2.048,2.048-5.238-5.238,2.048-2.048a1.285,1.285,0,0,1,1.811,0,1.279,1.279,0,0,1,0,1.811L41.5,205.613l1.615,1.615,1.713-1.713a1.285,1.285,0,0,1,1.811,0,1.28,1.28,0,0,1,0,1.812Z" transform="translate(-27.46 -151.597)" fill="#fff"/>
          <path id="Path_98" data-name="Path 98" d="M152.359,91.084l-1.95,1.95,8.468,8.468,1.95-1.95a5.988,5.988,0,0,0-8.468-8.468Zm6.853,6.853-.335.335-5.238-5.238.335-.335a3.7,3.7,0,1,1,5.238,5.238Z" transform="translate(-114.333 -67.907)" fill="#fff"/>
          <path id="Path_99" data-name="Path 99" d="M74.778,182.413l-6.853-6.853,2.048-2.048a1.285,1.285,0,0,1,1.811,0,1.279,1.279,0,0,1,0,1.811l-1.713,1.713,1.615,1.615L73.34,177l4.283,2.57,1.665-1.665-4.9-2.939a3.632,3.632,0,0,0,.054-.547,3.566,3.566,0,0,0-6.086-2.521L64.7,175.56l8.468,8.468Z" transform="translate(-49.178 -129.874)" fill="#fff"/>
          <path id="Path_100" data-name="Path 100" d="M103.349,149.16l-3.427-3.427,2.954-2.954,3.427,3.427,1.615-1.615-8.468-8.468-6.184,6.184,8.468,8.468ZM96.5,142.308l2.954-2.954,1.811,1.811-2.954,2.954Z" transform="translate(-70.896 -103.474)" fill="#fff"/>
          <path id="Path_101" data-name="Path 101" d="M136.49,116.02l-8.468-8.468-1.615,1.615,4.992,4.993-8.32-1.665-1.241,1.24,8.468,8.468,1.615-1.615-4.993-4.993,8.322,1.665Z" transform="translate(-92.615 -81.755)" fill="#fff"/>
          <path id="Path_102" data-name="Path 102" d="M202.468,0A12,12,0,0,0,190.5,11.422h2.284a9.751,9.751,0,1,1,6.481,9.72,4.521,4.521,0,0,0,.344-1.725,4.569,4.569,0,1,0-4.568,4.568,4.523,4.523,0,0,0,2.756-.949A11.991,11.991,0,1,0,202.468,0Zm-5.14,19.417a2.262,2.262,0,0,1-.128.723,9.671,9.671,0,0,1-2.869-2.883,2.258,2.258,0,0,1,.713-.124A2.287,2.287,0,0,1,197.328,19.417ZM195.044,21.7a2.287,2.287,0,0,1-2.284-2.284,2.2,2.2,0,0,1,.035-.352,11.921,11.921,0,0,0,2.612,2.6A2.207,2.207,0,0,1,195.044,21.7Z" transform="translate(-144.789 0)" fill="#efa0a0"/>
        </g>
      </g>
    </g>
  </g>
</svg>
