<svg xmlns="http://www.w3.org/2000/svg" xmlns:xlink="http://www.w3.org/1999/xlink" width="650" height="560" viewBox="0 0 650 560">
  <defs>
    <clipPath id="clip-path">
      <rect id="Rectangle_20" data-name="Rectangle 20" width="650" height="560" transform="translate(1243 734)" fill="#fff"/>
    </clipPath>
  </defs>
  <g id="post_thumb" transform="translate(-1243 -734)" clip-path="url(#clip-path)">
    <rect id="Rectangle_19" data-name="Rectangle 19" width="650" height="560" transform="translate(1243 734)" fill="#f5f5f5"/>
    <path id="box-open-solid" d="M261.436,169.56a29.771,29.771,0,0,1-25.427-14.372L196.518,89.718l-39.43,65.471A29.871,29.871,0,0,1,131.6,169.621a28.248,28.248,0,0,1-8.168-1.167L39.291,144.379V253.7a19.591,19.591,0,0,0,14.863,19.039l132.784,33.227a39.924,39.924,0,0,0,19.039,0l132.907-33.227A19.7,19.7,0,0,0,353.746,253.7V144.379L269.6,168.393A28.248,28.248,0,0,1,261.436,169.56Zm130.573-68.91-31.63-63.137a10.031,10.031,0,0,0-10.257-5.466l-153.6,19.592,56.319,93.415a10.1,10.1,0,0,0,11.362,4.483l121.544-34.7a10.115,10.115,0,0,0,6.265-14.187ZM32.658,37.513,1.028,100.65a10.013,10.013,0,0,0,6.2,14.126l121.544,34.7a10.1,10.1,0,0,0,11.362-4.483l56.381-93.354L42.853,32.047a10.036,10.036,0,0,0-10.2,5.466Z" transform="translate(1371.495 844.459)" fill="#c33"/>
  </g>
</svg>
