<svg xmlns="http://www.w3.org/2000/svg" width="80.534" height="75.817" viewBox="0 0 80.534 75.817"><g transform="translate(-402.814 -160.351)"><path d="M417.917,202.577c-9.41-5.033-14.646-15.339-14.987-24.667a27.475,27.475,0,0,0-1.987,8.422c-2.45,25.827,20.65,30.54,27.909,30.208,6.3.21,27.38-3.17,29.281-25.342-5.659,9.244-17.028,14.3-26.37,14.518a27.541,27.541,0,0,1-13.846-3.139" transform="translate(13.671 8.079)" fill="#8bc751"/><path d="M454.182,180.159c-9.416-6-17.916,2.977-25.056,6.845-6.119,3.316-14.711,3.811-23.476-2.316,6.517,12.88,16.25,16.072,22.448,16.279,10.46.349,26.083-7.436,26.083-20.808M417.56,195.451c.286.239-.127-.031,0,0" transform="translate(15.921 8.189)" fill="#00833b"/><path d="M413.882,190c-.128-.031.288.239,0,0" transform="translate(19.696 13.641)" fill="#00833b"/><path d="M443.516,178.062q-5.8,1.216-11.688,2.168-2.867,3.526-5.884,6.987-3.016-3.46-5.884-6.985-5.885-.95-11.69-2.165,4.023-2.258,7.909-4.637-1.59-3.517-3.092-7.054,5.167,2.558,10.527,4.894.462-5.458.891-10.919h2.672q.429,5.46.894,10.917,5.359-2.335,10.526-4.9-1.5,3.535-3.091,7.054,3.885,2.379,7.911,4.636" transform="translate(17.172)" fill="#00833b"/><path d="M448.894,168.211c-.007.018,6.443,2.373,10.19,5.442,4.274,3.548,6.3,7.759,7.241,15.854,1.291,10.946-1.232,20.4-7.931,27.028-5.9,5.868-15.068,9.364-25.323,9.355-10.253.01-19.418-3.487-25.321-9.355-6.7-6.625-9.224-16.082-7.933-27.028.939-8.1,2.968-12.306,7.242-15.854,3.745-3.069,10.2-5.424,10.189-5.442-.067.245-20.338-3.189-23.92,20.427-1.815,12.842,1.046,24.212,9.219,32.417,7.127,7.2,18.218,11.532,30.524,11.519,12.306.013,23.4-4.319,30.525-11.519,8.174-8.206,11.033-19.576,9.218-32.417-3.58-23.616-23.852-20.182-23.92-20.427" transform="translate(10.01 3.594)" fill="#cc194b"/></g></svg>