<svg xmlns="http://www.w3.org/2000/svg" width="300.273" height="92.559" viewBox="0 0 300.273 92.559"><g transform="translate(-402.814 -160.351)"><g transform="translate(525.176 162.793)"><rect width="5.152" height="5.207" transform="translate(32.667 40.999)" fill="#fff"/><rect width="5.152" height="5.207" transform="translate(40.561 40.999)" fill="#fff"/><path d="M460.783,229.551a16.565,16.565,0,0,0-7.88-1.767,26.443,26.443,0,0,0-5.311.61c-1.343.283-4.968,1.325-11.057,3.174V229h-5.1v21h-8.365c-2.075,0-3.5-.419-4.251-1.264-.706-.733-1.066-2.2-1.066-4.324V229H412.6v15.353c0,2.127-.41,3.617-1.209,4.416-.847.814-2.429,1.228-4.706,1.228H403.83c-4.621,0-5.156-2.227-5.156-3.907V216.952h-5.1V250.8l-.162,3.036a17.358,17.358,0,0,1-.514,3.435,7.5,7.5,0,0,1-1.259,2.415,3.955,3.955,0,0,1-1.9,1.362,8.079,8.079,0,0,1-3.062.488,12.515,12.515,0,0,1-7.3-2.009,7.971,7.971,0,0,1-3.565-7.117,9.605,9.605,0,0,1,.2-2.132l.012-.066a18.216,18.216,0,0,1,.488-2.4,16.683,16.683,0,0,1,1.721-4.866l.447-.794-4.65-1.007-.244.447a25.257,25.257,0,0,0-2.522,7.9,21.711,21.711,0,0,0-.223,2.755,15.891,15.891,0,0,0,1.143,6.291l.062.2A11.579,11.579,0,0,0,377.492,264a18.577,18.577,0,0,0,9.247,2.212,14.445,14.445,0,0,0,4.883-.791c2.924-.9,5.03-3.145,6.268-6.7a19.014,19.014,0,0,0,.77-4.883,9.79,9.79,0,0,0,1.1.381c.527.122,1.229.244,1.795.321a12.649,12.649,0,0,0,1.831.132h3.924c.648,0,1.235-.018,1.736-.055a9.516,9.516,0,0,0,.953-.093c.093-.02.342-.074.751-.167.309-.07.5-.112.559-.122l.189-.027a8.754,8.754,0,0,0,3.289-1.709,4.554,4.554,0,0,0,.366-.348l.306.306.05.046a8.34,8.34,0,0,0,3.373,1.709,17.443,17.443,0,0,0,3.13.427v.024h35.453c6.562,0,9.979-3.052,9.979-9.923v-1.492c0-6.982-1.287-10.961-6.671-13.7M457.713,250H436.535V236.551c1.171-.4,3.065-.989,5.648-1.767,2.93-.88,4.911-1.456,5.834-1.7a27.816,27.816,0,0,1,4.883-.534,12.466,12.466,0,0,1,4.58.871,7.869,7.869,0,0,1,4.873,7.423V243.3c.233,5.731-1.458,6.47-4.633,6.7" transform="translate(-371.043 -216.952)" fill="#fff"/><path d="M501.951,230.9a8.579,8.579,0,0,0-7.112-3.139,23.352,23.352,0,0,0-5.315,1.065c-2.108.654-4.777,1.587-7.935,2.79l-.431.164v11.89a11.752,11.752,0,0,1-.419,3.129,5.1,5.1,0,0,1-1.054,2.114,2.855,2.855,0,0,1-1.364.867,11.2,11.2,0,0,1-1.893.189H468.36V242.78c0-5.307-1.554-15.091-14.387-15.091a36.136,36.136,0,0,0-12.316,2.442l-.546.2.977,4.6,1.267-.381a41.135,41.135,0,0,1,5.315-1.5,21.716,21.716,0,0,1,5.075-.577c7.192.122,9.173,4.029,9.458,11.3v6.194l-25.171.016a11.429,11.429,0,0,1-2.173-.2,3.711,3.711,0,0,1-1.508-.93,4.158,4.158,0,0,1-.977-1.937l-.024-.148a17.619,17.619,0,0,1-.356-4.227V216.982h-5.152v27.735a12.31,12.31,0,0,0,.748,4.584,7.277,7.277,0,0,0,2.166,3.174,8.317,8.317,0,0,0,3.373,1.709,18,18,0,0,0,4.129.454l25.589-.071.244,2.494,5.068-.778-.139-1.716h7.039a17.435,17.435,0,0,0,3.9-.38,7.475,7.475,0,0,0,3.371-1.709,4.621,4.621,0,0,0,.64-.6c.755.366,1.946.855,3.617,1.465l.034.012a23.58,23.58,0,0,0,5.967,1.282,11.858,11.858,0,0,0,5.585-1.109,9.3,9.3,0,0,0,5.319-9.049v-4.4c0-4.176-.863-7.275-2.541-9.181m-2.666,10.221c0,7.447-1.972,8.752-5.915,8.752a16.506,16.506,0,0,1-3.881-.949h-.016c-.767-.225-1.847-.617-3.218-1.17V234.984c5.214-2.023,7.28-2.455,8.093-2.455a3.936,3.936,0,0,1,3.888,1.961,6.864,6.864,0,0,1,.784,2.7,27.911,27.911,0,0,1,.264,4.091Z" transform="translate(-326.6 -216.928)" fill="#fff"/><path d="M427.092,254.5a21.479,21.479,0,0,0-2.587.233,57.1,57.1,0,0,0-5.633,1.508l-.2.048c-.175.07-.457.164-.841.283l-.164.051V242.668h-5.09V283.8h5.09V261.493a23.222,23.222,0,0,1,8.371-2.219,3.346,3.346,0,0,1,3.41,1.953,20.135,20.135,0,0,1,.627,6.036V283.8h5.091V264.864c0-3.525-.806-6.218-2.39-8.007a7.254,7.254,0,0,0-5.683-2.353" transform="translate(-338.545 -196.829)" fill="#fff"/><path d="M401.847,249.477a23.611,23.611,0,0,0-5.738,1.221c-1.359.366-2.906.855-4.6,1.465a6.872,6.872,0,0,0-5.878-2.686,19.127,19.127,0,0,0-5.25,1.061c-1.465.41-2.679.778-3.626,1.1l-.933-2.475-4.776,1.411,1.283,4.086v24.061h5.091V256.442l.3-.122a27.693,27.693,0,0,1,3.549-1.232,14.842,14.842,0,0,1,3.465-.786,3.123,3.123,0,0,1,3.307,1.914,18.38,18.38,0,0,1,.565,5.905v16.6h5.1V260.271a20.142,20.142,0,0,0-.349-3.749c.949-.407,2.25-.872,3.881-1.386a13.917,13.917,0,0,1,3.727-.836,3.123,3.123,0,0,1,3.307,1.914,18.313,18.313,0,0,1,.565,5.905v16.6h5.091V260.271a13.8,13.8,0,0,0-1.777-7.55,7.1,7.1,0,0,0-6.3-3.246" transform="translate(-371.043 -191.748)" fill="#fff"/><path d="M418.9,258.253c0-3.432-.913-5.86-2.713-7.229-1.546-1.155-3.971-1.716-7.415-1.716a22.514,22.514,0,0,0-5.087.791,36.148,36.148,0,0,0-4.883,1.837l-1.043.512,2.03,4.207,1.061-.52a18.664,18.664,0,0,1,7.647-2.111c2.665,0,3.785.52,4.273.977a4.23,4.23,0,0,1,1.043,3.3v2.027h-8.369c-3.284,0-5.765,1.041-7.368,3.081a9.689,9.689,0,0,0-1.929,6.3,8.326,8.326,0,0,0,2.7,6.407,9.962,9.962,0,0,0,7.26,2.7,19.505,19.505,0,0,0,4.333-.945c.82-.2,2.2-.573,4.1-1.107l1.155,2.154,4.273-.989L418.9,274.4Zm-5.091,6.635v7.526l-.226.073a4.6,4.6,0,0,1-.46.154c-.267.082-.488.139-.651.173l-.918.348c-.59.193-1.03.328-1.314.4l-.177.032a15.168,15.168,0,0,1-3.014.784c-2.355,0-4.043-.488-5.014-1.437a4.6,4.6,0,0,1-1.077-3.39,4.8,4.8,0,0,1,.977-3.455c.786-.8,2.266-1.209,4.395-1.209Z" transform="translate(-351.408 -191.633)" fill="#fff"/><path d="M451.075,258.253c0-3.432-.913-5.86-2.715-7.229-1.543-1.155-3.97-1.716-7.414-1.716a22.514,22.514,0,0,0-5.087.791,36.05,36.05,0,0,0-4.883,1.837l-1.043.512,2.03,4.207,1.061-.52a18.665,18.665,0,0,1,7.647-2.111c2.665,0,3.785.52,4.273.977a4.23,4.23,0,0,1,1.043,3.3v2.027h-8.374c-3.282,0-5.764,1.041-7.365,3.081a9.689,9.689,0,0,0-1.929,6.3,8.326,8.326,0,0,0,2.7,6.407,9.962,9.962,0,0,0,7.26,2.7,19.506,19.506,0,0,0,4.333-.945c.82-.2,2.2-.573,4.1-1.107l1.155,2.154,4.273-.989L451.07,274.4Zm-5.091,6.635v7.526l-.226.073a4.6,4.6,0,0,1-.46.154c-.267.082-.488.139-.651.173l-.918.348c-.59.193-1.03.328-1.314.4l-.177.032a15.167,15.167,0,0,1-3.014.784c-2.355,0-4.043-.488-5.014-1.437a4.6,4.6,0,0,1-1.077-3.39,4.8,4.8,0,0,1,.977-3.455c.786-.8,2.266-1.209,4.395-1.209Z" transform="translate(-326.229 -191.633)" fill="#fff"/><path d="M465.5,264.43a31.546,31.546,0,0,0-6.506-2.825c-.415-.177-1.078-.407-2.023-.7l-2.217-.761a8.865,8.865,0,0,1-2.836-1.631,2.387,2.387,0,0,1-.855-1.786,2.7,2.7,0,0,1,.9-2.138c.415-.366,1.444-.813,3.971-.813a20.877,20.877,0,0,1,8.276,1.872l1.13.469,1.868-4.013-1.043-.488a29.683,29.683,0,0,0-5.82-1.767,27.46,27.46,0,0,0-4.911-.534,11.559,11.559,0,0,0-7.034,1.856,6.837,6.837,0,0,0-2.593,5.869,5.86,5.86,0,0,0,2.267,4.811,18.576,18.576,0,0,0,5.625,2.871l4.883,1.665a15.9,15.9,0,0,1,3.118,1.431c.855.573,1.27,1.151,1.27,1.768,0,4.092-3.89,4.565-6.815,4.565a19.962,19.962,0,0,1-8.554-2.417l-1.162-.61-1.945,4.228,1.041.488a32.625,32.625,0,0,0,5.781,1.967,19.778,19.778,0,0,0,4.839.8c4.087,0,7.178-.9,9.187-2.672a8.091,8.091,0,0,0,2.661-6.4,6.24,6.24,0,0,0-2.5-5.1" transform="translate(-313.568 -191.637)" fill="#fff"/><rect width="5.091" height="5.098" transform="translate(159.795 49.855)" fill="#fff"/><rect width="5.091" height="27.271" transform="translate(159.795 59.701)" fill="#fff"/><rect width="5.091" height="37.172" transform="translate(170.793 49.801)" fill="#fff"/></g><g transform="translate(402.814 160.351)"><path d="M421.705,208.024c-11.488-6.144-17.88-18.726-18.3-30.114a33.542,33.542,0,0,0-2.426,10.282c-2.991,31.53,25.21,37.284,34.072,36.879,7.691.256,33.426-3.87,35.747-30.938-6.909,11.285-20.788,17.458-32.193,17.724a33.623,33.623,0,0,1-16.9-3.832" transform="translate(-386.578 -146.611)" fill="#8bc751"/><path d="M464.9,180.6c-11.5-7.325-21.872,3.634-30.589,8.357-7.47,4.048-17.96,4.653-28.66-2.827,7.956,15.724,19.838,19.621,27.4,19.874,12.77.426,31.843-9.078,31.843-25.4M420.19,199.272c.349.292-.155-.038,0,0" transform="translate(-382.751 -146.423)" fill="#00833b"/><path d="M413.888,190c-.156-.038.352.292,0,0" transform="translate(-376.33 -137.151)" fill="#00833b"/><path d="M451.277,181.973q-7.081,1.485-14.269,2.647-3.5,4.3-7.183,8.53-3.682-4.224-7.183-8.527-7.185-1.16-14.271-2.643,4.911-2.757,9.656-5.661-1.941-4.294-3.775-8.612,6.308,3.123,12.852,5.975.564-6.663,1.088-13.33h3.262q.524,6.666,1.091,13.328,6.542-2.851,12.85-5.982-1.831,4.316-3.774,8.612,4.743,2.9,9.658,5.66" transform="translate(-380.623 -160.351)" fill="#00833b"/><path d="M461.28,168.222c-.009.022,7.866,2.9,12.44,6.644,5.218,4.331,7.691,9.472,8.84,19.355,1.576,13.363-1.5,24.9-9.682,33-7.2,7.164-18.4,11.432-30.915,11.421-12.517.012-23.706-4.257-30.912-11.421-8.18-8.088-11.261-19.633-9.685-33,1.146-9.883,3.623-15.023,8.841-19.355,4.572-3.747,12.452-6.622,12.439-6.644-.082.3-24.829-3.893-29.2,24.938-2.216,15.678,1.277,29.559,11.255,39.575,8.7,8.79,22.241,14.079,37.264,14.063,15.023.016,28.567-5.273,37.266-14.063,9.979-10.018,13.469-23.9,11.254-39.575-4.371-28.831-29.119-24.639-29.2-24.938" transform="translate(-392.804 -154.238)" fill="#cc194b"/></g></g></svg>